<svg width="12" height="12" viewBox="0 0 12 12" fill="none" xmlns="http://www.w3.org/2000/svg">
<path fill-rule="evenodd" clip-rule="evenodd" d="M10.2395 3.78914L7.5465 1.56251C6.63935 0.812496 5.36065 0.812496 4.45351 1.56251L1.76048 3.78914C1.2753 4.1903 1 4.79853 1 5.43315V8.90545C1 10.033 1.86707 11 3 11H4C4.55228 11 5 10.5523 5 10V8.3739C5 7.74015 5.47605 7.27935 6 7.27935C6.52395 7.27935 7 7.74015 7 8.3739V10C7 10.5523 7.4477 11 8 11H9C10.1329 11 11 10.033 11 8.90545V5.43315C11 4.79853 10.7247 4.1903 10.2395 3.78914Z" fill="white"/>
</svg>
