<svg width="1537" height="82" viewBox="0 0 1537 82" fill="none" xmlns="http://www.w3.org/2000/svg">
<path d="M61.3308 39.9894C59.1494 39.8976 56.36 40.0078 53.8925 39.8241C46.9013 39.2913 39.9815 37.4908 37.4067 26.8718C33.92 12.5048 46.8118 9.74897 50.0482 14.1583C50.0482 14.1583 46.2933 19.1371 51.9257 18.8615C57.5759 18.5859 52.4621 4.49455 41.8411 9.87757C41.8411 9.87757 42.5205 7.12176 43.4503 7.25037C44.3801 7.37897 27.7334 2.5471 31.6313 20.7906C31.6313 20.7906 29.6108 20.6436 30.1472 22.8666C30.5943 24.6671 34.5101 33.7246 39.8742 38.0604C41.0901 39.0341 42.3775 39.769 43.7185 40.1364C47.8489 41.2388 53.8389 43.3699 62.5109 41.0734C62.5109 40.8529 62.9043 40.0629 61.3129 40.0078L61.3308 39.9894Z" fill="#C6B56F"/>
<path d="M39.9638 37.2888C39.9638 37.2888 39.8923 37.2337 39.8565 37.2153C39.8565 37.2153 39.8565 37.2153 39.8386 37.2153C35.4758 35.6353 31.4884 32.9714 27.519 30.4728C25.4985 29.2051 23.3886 27.8456 21.6721 26.1553C20.2595 24.7774 19.0794 23.2525 17.6132 21.9297C14.3947 18.9718 13.2504 15.0402 11.0153 11.4209C9.67426 9.25299 7.68953 6.46043 4.86441 6.38694C1.87837 6.29508 4.16707 7.83834 4.2386 9.14276C4.2386 9.34485 4.13131 9.5102 3.97039 9.62044C2.14658 10.8697 0.394294 9.54695 0.0724458 7.54439C-0.338805 4.99067 1.64593 2.62066 3.86311 1.7388C9.60274 -0.539337 15.7536 3.6495 17.7741 9.1795C18.9542 6.86462 20.7602 3.92508 19.2761 1.92252C19.0615 1.64694 19.2761 1.18764 19.5979 1.11415C22.5124 0.452755 25.9455 2.76764 27.1792 5.41322C28.3772 7.98532 27.7157 10.539 26.5534 12.8723C27.1614 12.7437 27.8051 12.7253 28.5382 12.7804C28.8064 12.7988 29.1103 13.0193 29.0746 13.3316C28.9315 14.9483 27.358 16.363 26.6249 17.796C24.7654 21.3786 25.0693 25.0346 28.0733 27.8456C31.7209 31.2444 36.495 33.5042 40.5181 36.3335C41.0903 36.7377 40.5538 37.693 39.9817 37.2888H39.9638Z" fill="#C6B56F"/>
<path d="M62.1712 34.9188C61.0626 37.9686 56.2885 37.3072 53.9998 37.2153C50.084 37.05 45.8999 36.2232 42.8066 33.6144C42.753 33.5593 42.6993 33.5042 42.6815 33.449C42.6815 33.449 42.6815 33.449 42.6457 33.4307C42.0914 33.0265 42.6278 32.0711 43.1821 32.4753C44.541 33.4674 45.7211 34.386 47.4555 34.5697C49.1542 34.7351 50.978 34.68 52.6945 34.6065C54.7865 34.5146 57.4865 34.4963 58.4163 32.2732C59.2924 30.1788 57.7905 29.4439 57.2183 27.8088C57.1468 27.5883 57.2719 27.276 57.4686 27.1842C59.1672 26.339 61.6169 28.2865 62.046 29.9767C62.35 31.1342 61.6526 31.6118 61.6705 32.6039C61.6705 33.5776 62.6003 33.7614 62.1712 34.9372V34.9188Z" fill="#C6B56F"/>
<path d="M43.4503 74.7494C42.5027 74.8964 41.8411 72.1222 41.8411 72.1222C52.4621 77.5052 57.558 63.4138 51.9257 63.1382C46.2754 62.8627 50.0482 67.8415 50.0482 67.8415C46.8297 72.2692 33.92 69.495 37.4067 55.128C40.8934 40.761 62.5467 41.2754 62.5288 41.055C53.821 38.7401 47.8668 40.761 43.7364 41.8634C42.3954 42.2124 41.108 42.9657 39.8921 43.9394C34.528 48.2752 30.5943 57.3327 30.1651 59.1331C29.6287 61.3378 31.6492 61.2092 31.6492 61.2092C27.7513 79.4343 44.4159 74.6024 43.4682 74.7494H43.4503Z" fill="#C6B56F"/>
<path d="M40.5 45.6665C36.4769 48.4958 31.685 50.7556 28.0552 54.1544C25.0513 56.9654 24.7473 60.6214 26.6069 64.204C27.34 65.6186 28.9135 67.0333 29.0565 68.6684C29.0923 68.9807 28.7883 69.2012 28.5201 69.2196C27.787 69.2747 27.1612 69.2563 26.5354 69.1277C27.6976 71.4609 28.3592 74.0147 27.1612 76.5868C25.9274 79.2324 22.4944 81.5472 19.5799 80.8858C19.2759 80.8124 19.0435 80.353 19.258 80.0775C20.7421 78.0933 18.9362 75.1354 17.7561 72.8205C15.7356 78.3689 9.56681 82.5393 3.84506 80.2612C1.62788 79.3977 -0.356856 77.0093 0.0543947 74.4556C0.376243 72.4714 2.14641 71.1486 3.95234 72.3796C4.09538 72.4898 4.23843 72.6551 4.22054 72.8572C4.13114 74.1433 1.86032 75.7049 4.84636 75.613C7.67148 75.5396 9.65621 72.747 10.9972 70.5791C13.2323 66.9598 14.3945 63.0282 17.5951 60.0702C19.0435 58.7291 20.2414 57.2042 21.654 55.8447C23.3705 54.1544 25.4983 52.8133 27.5009 51.5272C31.4525 49.0286 35.4399 46.3647 39.8206 44.7847C39.8206 44.7847 39.8206 44.7847 39.8384 44.7847C39.8742 44.7663 39.91 44.7295 39.9457 44.7112C40.5179 44.307 41.0543 45.2623 40.4821 45.6665H40.5Z" fill="#C6B56F"/>
<path d="M24.0143 34.4227C20.9209 33.3571 18.0243 32.7508 14.7522 33.2285C12.0701 33.6327 9.15558 35.2862 7.51058 37.5276C6.99204 38.2441 6.09802 39.8241 6.08014 41.1285C6.08014 41.1469 6.08014 41.1652 6.08014 41.202C6.08014 41.2204 6.08014 41.2387 6.08014 41.2755C6.08014 42.5615 6.97416 44.1599 7.51058 44.8764C9.1377 47.1362 12.0701 48.7897 14.7522 49.1755C18.0243 49.6531 20.9209 49.0652 24.0143 47.9813C24.8546 47.6873 35.8332 44.4538 35.8332 41.202C35.8332 37.9501 24.8546 34.7166 24.0143 34.4227Z" fill="#C6B56F"/>
<path d="M61.6705 49.4144C61.6705 50.4064 62.35 50.8657 62.046 52.0416C61.6169 53.7318 59.1673 55.6792 57.4686 54.8341C57.2719 54.7423 57.1468 54.4299 57.2183 54.2095C57.8084 52.5744 59.2924 51.8578 58.4163 49.745C57.5044 47.522 54.7865 47.5037 52.6945 47.4118C50.978 47.3383 49.1721 47.2832 47.4556 47.4485C45.739 47.6139 44.541 48.5509 43.1821 49.543C42.6099 49.9471 42.0735 48.9918 42.6457 48.5876C42.6457 48.5876 42.6457 48.5876 42.6815 48.5692C42.7172 48.5141 42.753 48.459 42.8066 48.4039C45.9 45.7767 50.084 44.9683 53.9998 44.803C56.2885 44.7111 61.0626 44.0497 62.1712 47.0995C62.6003 48.2753 61.6705 48.4406 61.6705 49.4327V49.4144Z" fill="#C6B56F"/>
<path d="M1470.3 38.5H66.2423C64.2014 38.5 62.5539 39.6167 62.5539 41C62.5539 42.3833 64.2014 43.5 66.2423 43.5H1470.3C1472.34 43.5 1473.98 42.3833 1473.98 41C1473.98 39.6167 1472.34 38.5 1470.3 38.5Z" fill="#C6B56F"/>
<path d="M1475.21 39.9896C1477.39 39.8977 1480.18 40.0079 1482.65 39.8242C1489.64 39.2914 1496.56 37.491 1499.13 26.8719C1502.62 12.5049 1489.73 9.74909 1486.49 14.1584C1486.49 14.1584 1490.24 19.1372 1484.61 18.8617C1478.96 18.5861 1484.08 4.49467 1494.7 9.8777C1494.7 9.8777 1494.02 7.12188 1493.09 7.25049C1492.14 7.39746 1508.82 2.54723 1504.91 20.7907C1504.91 20.7907 1506.93 20.6437 1506.39 22.8668C1505.94 24.6672 1502.03 33.7247 1496.66 38.0605C1495.45 39.0342 1494.16 39.7691 1492.82 40.1365C1488.69 41.2389 1482.7 43.37 1474.03 41.0735C1474.03 40.8531 1473.63 40.0631 1475.23 40.0079L1475.21 39.9896Z" fill="#C6B56F"/>
<path d="M1496.04 36.3336C1500.06 33.5043 1504.85 31.2445 1508.48 27.8457C1511.49 25.0347 1511.79 21.3787 1509.93 17.7961C1509.2 16.3815 1507.62 14.9668 1507.48 13.3317C1507.45 13.0194 1507.75 12.7989 1508.02 12.7806C1508.75 12.7254 1509.38 12.7438 1510 12.8724C1508.84 10.5392 1508.18 7.98544 1509.38 5.41335C1510.61 2.76776 1514.04 0.452877 1516.96 1.11427C1517.26 1.18776 1517.49 1.64706 1517.28 1.92264C1515.8 3.90683 1517.6 6.86474 1518.78 9.17962C1520.8 3.64962 1526.97 -0.539215 1532.69 1.73893C1534.89 2.62078 1536.9 4.99079 1536.48 7.54451C1536.16 9.5287 1534.39 10.8515 1532.59 9.62056C1532.44 9.51032 1532.3 9.34497 1532.32 9.14288C1532.41 7.85683 1534.68 6.2952 1531.69 6.38707C1528.87 6.46055 1526.88 9.25311 1525.54 11.421C1523.31 15.0403 1522.14 18.972 1518.94 21.9299C1517.49 23.271 1516.3 24.7959 1514.88 26.1554C1513.17 27.8457 1511.04 29.1868 1509.04 30.4729C1505.09 32.9715 1501.1 35.6355 1496.72 37.2155C1496.72 37.2155 1496.72 37.2155 1496.7 37.2155C1496.66 37.2338 1496.63 37.2706 1496.59 37.2889C1496.02 37.6931 1495.48 36.7378 1496.06 36.3336H1496.04Z" fill="#C6B56F"/>
<path d="M1474.87 32.604C1474.87 31.612 1474.19 31.1527 1474.49 29.9768C1474.92 28.2866 1477.37 26.3392 1479.07 27.1843C1479.27 27.2761 1479.39 27.5885 1479.32 27.8089C1478.73 29.444 1477.25 30.1606 1478.12 32.2734C1479.03 34.4964 1481.75 34.5147 1483.84 34.6066C1485.56 34.6801 1487.37 34.7352 1489.08 34.5699C1490.8 34.4045 1492 33.4675 1493.36 32.4754C1493.93 32.0713 1494.46 33.0266 1493.89 33.4308C1493.89 33.4308 1493.89 33.4308 1493.86 33.4492C1493.82 33.5043 1493.79 33.5594 1493.73 33.6145C1490.64 36.2417 1486.45 37.0501 1482.54 37.2154C1480.25 37.3073 1475.48 37.9687 1474.37 34.9189C1473.94 33.7431 1474.87 33.5778 1474.87 32.5857V32.604Z" fill="#C6B56F"/>
<path d="M1493.07 74.7495C1494.02 74.8965 1494.68 72.1223 1494.68 72.1223C1484.06 77.5054 1478.96 63.414 1484.59 63.1384C1490.24 62.8628 1486.47 67.8416 1486.47 67.8416C1489.69 72.2693 1502.6 69.4951 1499.11 55.1281C1495.63 40.7612 1473.97 41.2756 1473.99 41.0551C1482.7 38.7402 1488.65 40.7612 1492.78 41.8635C1494.13 42.2125 1495.41 42.9658 1496.63 43.9395C1501.99 48.2753 1505.93 57.3328 1506.36 59.1333C1506.89 61.3379 1504.87 61.2093 1504.87 61.2093C1508.77 79.4344 1492.1 74.6026 1493.05 74.7495H1493.07Z" fill="#C6B56F"/>
<path d="M1496.57 44.7112C1496.57 44.7112 1496.65 44.7663 1496.68 44.7847C1496.68 44.7847 1496.68 44.7847 1496.7 44.7847C1501.06 46.3647 1505.05 49.0286 1509.02 51.5272C1511.04 52.7949 1513.15 54.1544 1514.87 55.8447C1516.28 57.2226 1517.46 58.7475 1518.93 60.0702C1522.14 63.0282 1523.29 66.9598 1525.52 70.5791C1526.86 72.747 1528.85 75.5396 1531.67 75.613C1534.66 75.7049 1532.37 74.1433 1532.3 72.8572C1532.3 72.6551 1532.41 72.4898 1532.57 72.3796C1534.39 71.1303 1536.14 72.453 1536.47 74.4556C1536.88 77.0093 1534.89 79.3793 1532.68 80.2612C1526.94 82.5393 1520.78 78.3505 1518.76 72.8205C1517.58 75.1354 1515.78 78.0749 1517.26 80.0775C1517.48 80.353 1517.26 80.8124 1516.94 80.8858C1514.03 81.5472 1510.59 79.2324 1509.36 76.5868C1508.16 74.0147 1508.82 71.4609 1509.98 69.1277C1509.38 69.2563 1508.73 69.2747 1508 69.2196C1507.73 69.2012 1507.43 68.9807 1507.46 68.6684C1507.61 67.0516 1509.18 65.637 1509.91 64.204C1511.77 60.6214 1511.47 56.9654 1508.46 54.1544C1504.82 50.7556 1500.04 48.4958 1496.02 45.6665C1495.45 45.2623 1495.98 44.307 1496.56 44.7112H1496.57Z" fill="#C6B56F"/>
<path d="M1512.52 34.4228C1515.62 33.3572 1518.51 32.7509 1521.79 33.2286C1524.47 33.6328 1527.38 35.2863 1529.03 37.5277C1529.55 38.2442 1530.44 39.8242 1530.46 41.1286C1530.46 41.147 1530.46 41.1654 1530.46 41.2021C1530.46 41.2205 1530.46 41.2388 1530.46 41.2756C1530.46 42.5616 1529.56 44.16 1529.03 44.8765C1527.4 47.1363 1524.47 48.7898 1521.79 49.1756C1518.51 49.6533 1515.62 49.0654 1512.52 47.9814C1511.68 47.6875 1500.7 44.454 1500.7 41.2021C1500.7 37.9502 1511.68 34.7167 1512.52 34.4228Z" fill="#C6B56F"/>
<path d="M1474.37 47.0812C1475.48 44.0314 1480.25 44.6928 1482.54 44.7846C1486.45 44.95 1490.64 45.7767 1493.73 48.3856C1493.79 48.4407 1493.84 48.4958 1493.86 48.5509C1493.86 48.5509 1493.86 48.5509 1493.89 48.5693C1494.45 48.9735 1493.91 49.9288 1493.36 49.5246C1492 48.5326 1490.82 47.6139 1489.08 47.4302C1487.38 47.2649 1485.56 47.32 1483.84 47.3935C1481.75 47.4853 1479.05 47.5037 1478.12 49.7267C1477.25 51.8212 1478.75 52.556 1479.32 54.1912C1479.39 54.4116 1479.27 54.724 1479.07 54.8158C1477.37 55.6609 1474.92 53.7135 1474.49 52.0233C1474.19 50.8474 1474.89 50.3881 1474.87 49.396C1474.87 48.4223 1473.94 48.2386 1474.37 47.0628V47.0812Z" fill="#C6B56F"/>
</svg>
