<svg width="592" height="72" viewBox="0 0 592 72" fill="none" xmlns="http://www.w3.org/2000/svg">
<path d="M460.23 34.446C446.567 34.446 432.197 34.4166 416.898 34.3431C385.162 34.196 352.885 33.9313 321.676 33.6665C290.744 33.4018 258.744 33.1371 227.286 32.99C171.414 32.74 60.8925 32.7547 2.12237 33.8577H2.08076C0.943363 33.8577 0.027897 32.9018 0.000155564 31.6958C-0.0137151 30.475 0.901753 29.4749 2.03915 29.4455C60.8371 28.3425 171.4 28.3277 227.286 28.5778C258.758 28.7248 290.758 28.9896 321.69 29.2543C352.899 29.5191 385.162 29.7838 416.898 29.9309C446.124 30.0632 471.979 30.0632 495.919 29.9456C497.071 29.9456 498 30.931 498 32.137C498 33.3577 497.071 34.3431 495.933 34.3578C484.518 34.4166 472.658 34.446 460.202 34.446H460.23Z" fill="#C6B56F"/>
<path d="M568.407 71.8604C568.58 71.9396 568.816 71.7971 568.816 71.6071C568.879 70.1506 568.863 68.7416 569.02 67.2851C569.24 65.3062 570.23 64.293 571.566 62.9156C571.975 62.4882 572.274 61.9657 572.871 61.9341C573.625 61.8866 573.719 62.5357 574.191 63.1214C574.945 64.0397 575.904 64.7363 576.863 65.417C579.283 67.1268 581.907 67.5859 584.799 67.8551C586.261 67.9976 587.659 67.9975 589.105 67.7601C589.985 67.6018 591.07 67.4909 591.683 66.7943C591.84 66.6202 591.683 66.3352 591.463 66.3194C589.011 66.1294 587.094 65.4328 585.098 63.9922C583.29 62.7098 581.64 60.9842 580.1 59.3852C578.638 57.8495 577.538 56.0764 576.187 54.4616C574.772 52.7676 573.877 50.5987 573.075 48.5406C571.566 44.5986 570.12 40.4507 567.512 37.0944C565.091 33.9914 561.382 32.0442 560.188 31.5692C559.701 30.8568 559.229 30.1444 558.632 29.5111C556.762 27.4847 554.625 25.854 552.314 24.4925C553.116 24.54 553.949 24.5559 554.86 24.4925C559.984 24.2076 563.96 21.4845 566.49 17.1309C571.158 9.07263 565.531 -0.0779883 556.715 0.571104C554.813 0.713588 554.782 3.68992 556.715 3.5791C561.948 3.2783 556.385 9.94337 554.373 11.2416C549.407 14.4712 545.289 15.3261 540.182 15.3577C540.229 15.0569 540.276 14.7561 540.26 14.4395C540.213 12.7772 539.412 11.5423 538.233 10.5766C538.091 10.3392 537.966 10.2283 537.966 10.2283C537.966 10.2283 537.903 10.2283 537.809 10.26C537.746 10.2125 537.683 10.165 537.62 10.1175C537.84 7.52114 537.227 4.79812 535.294 2.94583C533.832 1.53683 531.664 0.887734 529.621 0.966892C529.071 0.84024 528.505 0.776916 528.002 0.808579C526.053 0.9194 523.869 2.42339 523.366 4.434C522.989 5.95382 523.869 7.56864 525.535 7.347C526.525 7.20451 526.996 6.47626 526.509 5.92216C527.42 6.00132 528.772 7.17285 529.243 7.61613C529.856 8.17023 530.234 8.78766 530.501 9.46842C530.485 9.50008 530.438 9.50008 530.422 9.53174C528.866 9.6584 527.578 10.1333 527.137 11.7957C527.012 12.2706 526.965 12.9988 527.137 13.5688C527.137 13.6004 527.137 13.6163 527.137 13.6479C527.137 13.7429 527.2 13.8063 527.248 13.8379C527.389 14.1071 527.609 14.3287 527.923 14.4079C528.096 14.4553 528.363 14.3762 528.363 14.1387C528.222 13.2205 528.882 13.0147 530.344 13.5371C530.548 14.3129 530.501 15.0411 530.202 15.7219C529.998 16.3393 529.683 16.9251 529.416 17.5108C529.416 17.5267 529.416 17.5425 529.416 17.5583C529.385 17.6058 529.369 17.6691 529.338 17.7166C529.118 18.0174 528.85 18.2707 528.599 18.524C527.939 19.094 527.247 19.6006 526.556 20.0597C525.503 20.5821 524.34 20.8988 523.177 20.9621C521.574 21.0729 519.17 21.3579 517.409 20.788C517.944 19.7906 516.734 18.6349 515.759 19.3315C514.266 20.3922 517.048 22.941 517.959 23.3843C519.83 24.3026 522.407 23.7643 524.466 23.1943C524.497 23.2735 524.56 23.3368 524.639 23.3685C513.512 26.1232 506.864 32.3608 502.558 33.4373C499.053 34.3239 498.487 31.68 498.566 29.4636C503.517 22.0545 501.458 8.56602 494.213 3.8324C491.148 1.8218 485.726 0.776916 483.95 5.16225C482.3 9.19928 484.485 13.6796 488.036 15.8169C488.602 16.1652 489.388 16.0702 489.844 15.5794C490.582 14.8036 490.787 14.4237 491.195 13.4263C491.871 11.7165 489.309 10.9566 488.461 12.4131C487.486 11.5582 486.732 10.4341 486.512 9.12013C485.758 4.78229 491.054 4.65564 493.443 7.03036C495.439 9.02514 497.214 11.3365 497.654 14.202C498.236 18.0174 498.377 23.2577 496.476 27.0097C495.564 27.5797 494.826 28.6404 494.417 29.8594C494.276 30.0969 494.197 30.3344 494.213 30.5877C493.144 35.2738 496.649 41.2739 511.092 31.8384C533.345 17.305 546.767 25.0466 552.927 38.2185C558.726 50.5987 552.99 53.2901 550.397 54.3666C547.804 55.4273 545.557 53.1634 547.018 52.6093C548.464 52.0552 548.055 50.567 548.055 50.567C548.495 46.7516 542.806 44.1553 540.15 49.4272C537.761 54.1608 543.058 60.2243 550.507 60.5409C550.554 60.5884 550.617 60.6201 550.711 60.6201C551.088 60.6201 551.45 60.5726 551.827 60.5409C552.251 60.5251 552.692 60.4934 553.132 60.4301C554.106 60.3034 554.97 60.0026 555.772 59.5752C558.192 58.6095 560.329 56.9946 561.697 54.6991C562.105 54.0183 562.404 53.2584 562.64 52.4668C563.441 52.0869 563.567 50.8362 563.724 50.0288C564.211 47.5432 564.211 44.9944 563.975 42.4771C563.661 39.1842 562.75 35.9546 561.147 33.089C561.775 33.6432 562.483 34.1498 563.064 34.7672C564.667 36.4453 565.814 38.6459 566.71 40.799C567.606 42.9679 567.873 45.8809 567.59 48.1923C567.417 49.6013 567.056 50.852 566.097 51.9286C565.076 53.0684 564.148 53.3534 562.655 53.3376C562.404 53.3376 562.278 53.5434 562.357 53.765C562.828 55.269 564.777 56.5355 566.27 56.8838C567.103 57.0896 567.826 56.9471 568.643 56.6938C569.288 56.488 569.775 56.0606 570.309 55.744C569.775 57.5171 566.569 57.6437 565.421 58.7044C564.337 59.7335 564.117 61.3483 564.258 62.7731C564.447 64.6888 565.249 66.6202 566.097 68.33C566.6 69.3749 567.276 71.3538 568.407 71.8921V71.8604ZM535.247 11.8431C535.923 9.13596 535.766 6.31795 534.068 3.7849C533.534 2.9775 532.654 2.24925 531.679 1.72681C533.172 2.05927 534.555 2.81918 535.498 4.03821C536.991 5.95382 537.274 8.26522 536.991 10.5608C536.803 10.6558 536.614 10.7666 536.394 10.9249C536.033 11.1466 535.64 11.4632 535.231 11.8431H535.247ZM562.954 39.7066C563.441 42.018 563.614 44.4244 563.52 46.7833C563.504 47.3216 563.457 49.633 563.017 50.9787C563.158 50.2029 563.253 49.4272 563.331 48.6831C564.023 41.4323 559.214 34.2289 558.774 33.9123C555.033 28.1179 548.543 22.6244 537.919 22.102C536.787 22.0545 535.687 22.0386 534.618 22.0545C535.263 21.9595 535.876 21.8645 536.52 21.6587C537.054 21.4845 537.369 22.2445 537.919 22.102C540.103 22.4028 542.539 21.6745 544.582 22.5136C546.767 23.4002 548.7 23.9859 550.743 24.2709C553.022 25.4266 555.143 26.8673 557.029 28.6879C560.219 31.775 562.043 35.353 562.97 39.7225L562.954 39.7066Z" fill="#C6B56F"/>
</svg>
