<svg width="334" height="348" viewBox="0 0 334 348" fill="none" xmlns="http://www.w3.org/2000/svg">
<g clip-path="url(#clip0_40_71)">
<path d="M117.031 291.635C115.141 290.946 113.288 289.89 112.269 288.218C111.25 286.547 111.333 284.149 112.89 282.91C113.881 282.111 115.271 281.918 116.568 282C117.633 282.065 118.782 282.349 119.412 283.176C119.94 283.865 119.996 284.783 119.885 285.628C119.57 287.869 118.189 289.825 117.04 291.626L117.031 291.635Z" fill="#0784C0"/>
<path d="M51.4372 310.353C49.9086 309.03 49.047 306.982 49.1674 304.971C49.2971 302.959 50.4089 301.04 52.4286 299.928C53.6793 300.112 54.8281 300.911 55.4396 302.013C56.2271 303.437 56.0788 305.246 55.3284 306.688C54.578 308.13 53.2809 309.242 51.428 310.353H51.4372Z" fill="#0784C0"/>
<path d="M153.098 102.756C154.905 94.5359 151.913 85.4432 145.566 79.8499C144.445 78.8671 143.222 77.9671 142.379 76.7363C141.545 75.5056 141.175 73.8248 141.935 72.5482C142.611 71.4093 144.065 70.8674 145.4 70.9777C146.734 71.0879 147.957 71.7583 149.022 72.5666C154.071 76.4057 155.841 83.0644 157.101 89.2548C161.603 111.334 163.679 134.194 159.704 155.907C154.21 152.793 151.218 146.722 148.874 140.899C146.53 135.076 144.316 128.867 139.6 124.679C137.636 122.934 135.218 121.593 132.596 121.345C129.974 121.097 127.157 122.071 125.619 124.193C124.082 126.314 124.183 129.584 126.527 131.108C123.211 129.777 121.413 125.781 122.182 122.319C122.951 118.856 125.953 116.11 129.39 115.137C132.827 114.163 136.598 114.806 139.794 116.404C143.982 118.507 147.234 122.144 149.606 126.158C151.977 130.181 153.543 134.599 155.628 139.512C155.683 134.938 155.73 130.337 154.924 125.837C154.118 121.336 152.385 116.891 149.281 113.511C145.372 109.268 139.359 107.027 133.596 107.67C127.834 108.313 122.479 111.83 119.625 116.836C117.698 120.216 116.911 124.358 118.134 128.041C119.357 131.724 122.822 134.755 126.741 135.315C122.831 135.728 118.754 136.197 115.456 138.327C111.074 141.165 108.934 146.373 107.655 151.406C106.377 156.439 105.663 161.72 102.912 166.533C96.9083 161.978 91.8313 156.21 88.1347 149.891C86.9674 157.468 83.4746 164.669 77.888 170.28C73.0055 164.825 67.7247 159.608 61.434 155.824C55.1433 152.049 47.7038 149.79 41.3019 150.056C42.6267 147.604 42.9417 144.637 42.4229 141.322C48.5283 139.687 55.2544 140.394 60.8688 143.278C66.4925 146.162 70.958 151.195 73.3576 156.954C71.5417 151.213 69.6702 145.381 66.2979 140.376C62.9256 135.37 57.7652 131.219 51.7431 130.456C47.3888 129.905 42.8676 131.21 39.3563 133.809C35.845 136.417 33.3343 140.265 32.6024 144.904C31.4721 141.542 31.5091 137.813 32.7043 134.47C33.8994 131.136 36.2526 128.215 39.2081 126.314C37.5312 125.745 35.5949 125.984 34.446 126.608C35.1409 121.74 39.6065 117.91 44.4889 117.056C49.3714 116.202 54.4577 117.947 58.4415 120.868C62.4253 123.798 65.4548 127.82 68.1045 131.972C72.9407 139.531 76.7484 147.742 79.6297 156.191C78.5365 149.983 77.434 143.746 75.368 137.795C73.302 131.834 70.2169 126.121 65.6494 121.749C63.5185 119.711 61.0727 117.975 59.1271 115.761C57.1815 113.539 55.7362 110.655 56.1439 107.743C56.5515 104.832 59.3587 102.177 62.87 102.627C61.3135 94.1317 62.0454 85.2412 65.2695 77.5538C72.4589 82.991 77.9621 90.5957 80.7693 98.8342C81.8347 97.3555 83.8174 96.584 85.6147 96.9422C87.4121 97.3004 88.9315 98.7791 89.3298 100.561C89.8579 102.949 88.5146 105.291 87.4121 107.468C81.5383 119.058 81.6309 133.432 88.0421 143.7C85.6055 134.222 86.2447 123.981 89.8394 114.87C90.9419 112.087 92.3223 109.369 94.3235 107.128C96.3247 104.887 98.9743 103.142 101.948 102.618C105.033 102.076 108.823 103.417 109.536 106.439C109.897 107.964 109.388 109.58 108.508 110.884C107.637 112.188 106.423 113.226 105.413 114.136C107.257 114.622 108.906 115.816 109.87 117.157C104.932 117.332 100.596 120.978 98.5574 125.432C96.5192 129.887 96.4636 135.012 97.1955 139.852C97.9274 144.692 99.4098 149.386 100.67 153.28C99.4376 144.435 102.43 135.113 108.573 128.592C110.286 126.783 112.306 125.019 112.871 122.604C113.214 121.125 112.964 119.591 113.001 118.067C113.112 113.64 115.78 109.507 119.431 106.962C123.081 104.418 127.611 103.325 132.077 103.169C136.543 103.013 140.98 103.757 146.363 104.887C144.834 102.242 141.814 100.717 138.785 100.239C135.755 99.7526 132.651 100.175 129.687 100.68C130.187 99.6516 130.835 98.6872 131.623 97.778C128.251 98.3382 125.054 99.9271 123.174 102.021C120.83 99.1648 120.635 94.8757 122.386 91.6244C124.137 88.3731 127.593 86.1963 131.262 85.5902C134.921 84.9932 138.747 85.8657 142.009 87.6199C147.567 90.6141 151.607 96.2258 153.071 102.728L153.098 102.756Z" fill="#0784C0"/>
<path d="M96.9917 180.87C98.9836 181.237 101.077 181.302 103.004 180.695C104.932 180.089 106.683 178.721 107.414 176.847C108.146 174.974 107.655 172.613 106.043 171.401C106.043 171.401 109.962 164.347 110.129 163.787C113.399 165.559 115.994 168.526 117.309 171.989C118.18 174.294 118.467 176.939 117.42 179.171C116.29 181.596 113.807 183.102 111.343 184.186C108.749 185.324 105.941 186.169 103.116 185.958C100.29 185.756 97.4364 184.351 97.001 180.87H96.9917Z" fill="#0784C0"/>
<path d="M86.7356 182.652C85.1791 184.204 83.4096 185.664 81.2694 186.234C79.1386 186.794 76.563 186.234 75.3308 184.424C74.5804 183.313 74.4136 181.88 74.6081 180.558C74.7934 179.226 75.3123 177.968 75.8218 176.728C75.8218 176.728 69.7998 171.686 70.0036 171.869C66.0754 174.487 64.2132 179.795 65.6492 184.259C67.0853 188.732 71.699 191.992 76.4333 191.873C81.1675 191.754 85.6146 188.273 86.7356 182.652Z" fill="#0784C0"/>
<path d="M163.799 179.006C161.789 180.319 159.51 181.228 157.138 181.66C156.397 188.613 154.053 195.841 149.986 201.948C145.918 208.056 140.128 213.034 133.457 216.166C137.562 213.19 140.072 208.469 142.185 204.033C142.944 202.435 143.695 200.8 143.964 199.055C144.232 197.31 143.964 195.4 142.824 194.031C141.406 192.305 138.794 191.772 136.691 192.553C134.588 193.333 133.031 195.253 132.42 197.402C132.225 197.163 128.195 192.58 128.195 192.58L124.36 198.394C123.322 197.246 122.145 196.171 120.709 195.574C119.273 194.987 117.541 194.931 116.225 195.758C114.835 196.631 114.141 198.33 114.141 199.955C114.141 201.581 114.743 203.152 115.484 204.612C117.893 209.36 121.849 213.31 126.611 215.734C120.45 215.339 114.669 211.978 110.676 207.138C106.683 202.288 104.515 196.006 104.691 189.751C102.866 189.807 100.54 189.402 98.7983 188.64C99.4932 195.29 100.633 201.948 103.097 208.175C105.562 214.393 109.425 220.198 114.817 224.212C120.209 228.225 127.232 230.301 133.847 229.033C138.599 228.124 142.926 225.571 146.428 222.255C149.93 218.94 152.654 214.899 154.942 210.674C160.223 200.956 163.373 190.1 163.79 179.006H163.799Z" fill="#0784C0"/>
<path d="M89.1352 190.642C89.654 202.095 87.2266 213.659 82.1496 223.964C79.9076 228.519 77.0355 232.946 72.8294 235.83C66.724 240.018 58.4043 240.312 51.5114 237.557C44.6185 234.801 39.0875 229.327 35.2056 223.045C31.3237 216.763 28.9612 209.682 27.4048 202.27C29.6746 203.005 31.9537 203.73 34.6034 204.649C37.4013 214.834 44.3684 223.826 54.7448 227.803C51.2613 224.147 48.1391 220.161 45.4338 215.909C44.6926 214.742 43.9607 213.521 43.7106 212.162C43.4604 210.802 43.7754 209.259 44.8409 208.359C46.212 207.202 48.2966 207.477 49.9457 208.194C52.2341 209.195 54.1796 210.94 55.5971 212.593C55.7454 209.774 56.8849 207.009 59.0158 204.988C61.0725 206.577 62.7216 208.699 64.1762 211.344C63.8334 208.975 64.3337 206.348 66.0754 204.695C67.8172 203.041 70.9487 202.784 72.5607 204.557C73.6169 205.723 73.8207 207.404 73.8485 208.965C73.9597 214.531 72.4125 220.106 69.5682 225.47C76.7576 217.452 81.1954 207.046 82.1682 196.474C84.5121 194.886 86.6245 192.957 89.1166 190.633L89.1352 190.642Z" fill="#0784C0"/>
<path d="M43.1269 277.61C40.8756 276.536 39.2913 274.203 39.1153 271.732C38.9393 269.261 40.19 266.736 42.2838 265.184C44.0163 266.671 45.1559 268.821 45.4153 271.071C45.6747 273.33 45.0632 275.672 43.1269 277.61Z" fill="#0784C0"/>
<path d="M38.2445 261.317C32.9358 239.072 27.6179 216.836 23.0412 195.051C25.3018 197.209 27.655 199.432 30.6197 200.46C33.5844 201.489 37.3365 200.966 39.1431 198.422C40.4958 196.511 40.468 193.985 40.19 191.671C39.6156 186.867 38.1981 182.165 35.4373 177.977C35.5299 180.374 35.6133 182.854 34.7239 185.086C33.8345 187.318 31.6944 189.246 29.2763 189.118C27.025 188.998 25.2462 187.235 23.8657 185.481C15.7684 175.231 13.0631 161.004 17.399 147.934C11.6086 152.857 6.75392 158.855 3.1685 165.532C1.10248 169.38 -0.583688 173.734 0.203808 178.023C0.82454 181.421 2.96467 184.406 5.58657 186.693C8.1992 188.98 11.2936 190.651 14.0267 191.717C7.61553 195.951 5.09554 204.492 6.47598 212.005C7.84715 219.518 12.4887 226.076 19.0481 230.687C15.6295 223.541 14.249 215.45 15.1014 207.588C15.2681 206.091 15.6943 204.355 17.0933 203.767C18.4552 203.197 20.0765 204.125 20.7806 205.411C21.494 206.697 21.5218 208.231 21.5588 209.7C21.7812 219.417 22.6428 229.171 25.1165 238.567C27.5901 247.963 31.7314 257.046 38.2445 261.335V261.317Z" fill="#0784C0"/>
<path d="M216.969 291.635C218.859 290.946 220.712 289.89 221.731 288.218C222.75 286.547 222.667 284.149 221.11 282.91C220.119 282.111 218.729 281.918 217.432 282C216.367 282.065 215.218 282.349 214.588 283.176C214.06 283.865 214.004 284.783 214.115 285.628C214.43 287.869 215.811 289.825 216.96 291.626L216.969 291.635Z" fill="#0784C0"/>
<path d="M282.563 310.353C284.091 309.03 284.953 306.982 284.823 304.971C284.694 302.959 283.582 301.04 281.562 299.928C280.302 300.112 279.163 300.911 278.551 302.013C277.764 303.437 277.912 305.246 278.662 306.688C279.413 308.13 280.71 309.242 282.563 310.353Z" fill="#0784C0"/>
<path d="M167.005 45.5642C171.192 45.5642 174 46.3908 177.789 47.3552C178.067 47.245 177.641 41.6057 177.641 41.6057C178.613 41.5598 179.512 40.8434 179.771 39.9157C175.269 38.4462 171.693 38.0237 167.005 38.0237C162.317 38.0237 158.741 38.4462 154.238 39.9157C154.497 40.8434 155.396 41.5506 156.369 41.6057C156.369 41.6057 155.943 47.245 156.221 47.3552C160.01 46.4 162.817 45.5642 167.005 45.5642Z" fill="#0784C0"/>
<path d="M180.902 102.756C179.095 94.5359 182.087 85.4432 188.434 79.8499C189.555 78.8671 190.778 77.9671 191.621 76.7363C192.455 75.5056 192.825 73.8248 192.065 72.5482C191.389 71.4093 189.935 70.8674 188.601 70.9777C187.266 71.0879 186.043 71.7583 184.978 72.5666C179.929 76.4057 178.159 83.0644 176.899 89.2548C172.397 111.334 170.321 134.194 174.296 155.907C179.79 152.793 182.782 146.722 185.126 140.899C187.47 135.076 189.684 128.867 194.4 124.679C196.364 122.934 198.782 121.593 201.404 121.345C204.026 121.097 206.843 122.071 208.381 124.193C209.918 126.314 209.817 129.584 207.473 131.108C210.789 129.777 212.587 125.781 211.818 122.319C211.049 118.856 208.047 116.11 204.61 115.137C201.173 114.163 197.402 114.806 194.206 116.404C190.018 118.507 186.766 122.144 184.394 126.158C182.023 130.181 180.457 134.599 178.372 139.512C178.317 134.938 178.27 130.337 179.076 125.837C179.882 121.336 181.615 116.891 184.719 113.511C188.628 109.268 194.641 107.027 200.404 107.67C206.166 108.313 211.521 111.83 214.375 116.836C216.302 120.216 217.089 124.358 215.866 128.041C214.643 131.724 211.178 134.755 207.26 135.315C211.169 135.728 215.246 136.197 218.544 138.327C222.926 141.165 225.066 146.373 226.345 151.406C227.623 156.439 228.337 161.72 231.088 166.533C237.092 161.978 242.169 156.21 245.865 149.891C247.033 157.468 250.525 164.669 256.112 170.28C260.994 164.825 266.275 159.608 272.566 155.824C278.857 152.049 286.296 149.79 292.698 150.056C291.373 147.604 291.058 144.637 291.577 141.322C285.472 139.687 278.746 140.394 273.131 143.278C267.508 146.162 263.042 151.195 260.642 156.954C262.458 151.213 264.33 145.381 267.702 140.376C271.074 135.37 276.235 131.219 282.257 130.456C286.611 129.905 291.132 131.21 294.644 133.809C298.155 136.417 300.666 140.265 301.398 144.904C302.528 141.542 302.491 137.813 301.296 134.47C300.101 131.136 297.747 128.215 294.792 126.314C296.469 125.745 298.405 125.984 299.554 126.608C298.859 121.74 294.394 117.91 289.511 117.056C284.629 116.202 279.542 117.947 275.559 120.868C271.575 123.798 268.545 127.82 265.895 131.972C261.059 139.531 257.252 147.742 254.37 156.191C255.463 149.983 256.566 143.746 258.632 137.795C260.698 131.834 263.783 126.121 268.351 121.749C270.481 119.711 272.927 117.975 274.873 115.761C276.819 113.539 278.264 110.655 277.856 107.743C277.449 104.832 274.641 102.177 271.13 102.627C272.686 94.1317 271.955 85.2412 268.73 77.5538C261.541 82.991 256.038 90.5957 253.231 98.8342C252.165 97.3555 250.183 96.584 248.385 96.9422C246.588 97.3004 245.069 98.7791 244.67 100.561C244.142 102.949 245.485 105.291 246.588 107.468C252.462 119.058 252.369 133.432 245.958 143.7C248.395 134.222 247.755 123.981 244.161 114.87C243.058 112.087 241.678 109.369 239.677 107.128C237.675 104.887 235.026 103.142 232.052 102.618C228.967 102.076 225.177 103.417 224.464 106.439C224.103 107.964 224.612 109.58 225.492 110.884C226.363 112.188 227.577 113.226 228.587 114.136C226.743 114.622 225.094 115.816 224.13 117.157C229.068 117.332 233.404 120.978 235.443 125.432C237.481 129.887 237.536 135.012 236.804 139.852C236.073 144.692 234.59 149.386 233.33 153.28C234.562 144.435 231.57 135.113 225.427 128.592C223.714 126.783 221.694 125.019 221.129 122.604C220.786 121.125 221.036 119.591 220.999 118.067C220.888 113.64 218.22 109.507 214.569 106.962C210.919 104.418 206.389 103.325 201.923 103.169C197.458 103.013 193.02 103.757 187.637 104.887C189.166 102.242 192.186 100.717 195.215 100.239C198.245 99.7526 201.349 100.175 204.313 100.68C203.813 99.6516 203.165 98.6872 202.377 97.778C205.749 98.3382 208.946 99.9271 210.826 102.021C213.17 99.1648 213.365 94.8757 211.614 91.6244C209.863 88.3731 206.407 86.1963 202.738 85.5902C199.079 84.9932 195.253 85.8657 191.991 87.6199C186.433 90.6141 182.393 96.2258 180.929 102.728L180.902 102.756Z" fill="#0784C0"/>
<path d="M237.008 180.87C235.016 181.237 232.923 181.302 230.995 180.695C229.068 180.089 227.317 178.721 226.586 176.847C225.854 174.974 226.345 172.613 227.957 171.401C227.957 171.401 224.038 164.347 223.871 163.787C220.601 165.559 218.006 168.526 216.691 171.989C215.82 174.294 215.533 176.939 216.58 179.171C217.71 181.596 220.193 183.102 222.657 184.186C225.251 185.324 228.059 186.169 230.884 185.958C233.71 185.756 236.564 184.351 236.999 180.87H237.008Z" fill="#0784C0"/>
<path d="M247.273 182.652C248.83 184.204 250.599 185.664 252.74 186.234C254.87 186.794 257.446 186.234 258.678 184.424C259.429 183.313 259.595 181.88 259.401 180.558C259.216 179.226 258.697 177.968 258.187 176.728C258.187 176.728 264.209 171.686 264.005 171.869C267.934 174.487 269.796 179.795 268.36 184.259C266.924 188.732 262.31 191.992 257.576 191.873C252.841 191.754 248.394 188.273 247.273 182.652Z" fill="#0784C0"/>
<path d="M170.201 179.006C172.211 180.319 174.49 181.228 176.862 181.66C177.603 188.613 179.947 195.841 184.015 201.948C188.082 208.056 193.872 213.034 200.543 216.166C196.438 213.19 193.928 208.469 191.815 204.033C191.056 202.435 190.305 200.8 190.037 199.055C189.768 197.31 190.037 195.4 191.176 194.031C192.594 192.305 195.206 191.772 197.309 192.553C199.412 193.333 200.969 195.253 201.58 197.402C201.775 197.163 205.805 192.58 205.805 192.58L209.641 198.394C210.678 197.246 211.855 196.171 213.291 195.574C214.727 194.987 216.459 194.931 217.775 195.758C219.165 196.631 219.859 198.33 219.859 199.955C219.859 201.581 219.257 203.152 218.516 204.612C216.107 209.36 212.151 213.31 207.389 215.734C213.55 215.339 219.331 211.978 223.324 207.138C227.318 202.288 229.485 196.006 229.309 189.751C231.135 189.807 233.46 189.402 235.202 188.64C234.507 195.29 233.367 201.948 230.903 208.175C228.439 214.393 224.575 220.198 219.183 224.212C213.791 228.225 206.769 230.301 200.154 229.033C195.401 228.124 191.074 225.571 187.572 222.255C184.07 218.94 181.346 214.899 179.058 210.674C173.777 200.956 170.627 190.1 170.21 179.006H170.201Z" fill="#0784C0"/>
<path d="M244.865 190.642C244.346 202.095 246.773 213.659 251.85 223.964C254.092 228.519 256.964 232.946 261.17 235.83C267.276 240.018 275.595 240.312 282.488 237.557C289.381 234.801 294.912 229.327 298.794 223.045C302.676 216.763 305.039 209.682 306.595 202.27C304.325 203.005 302.046 203.73 299.396 204.649C296.598 214.834 289.631 223.826 279.255 227.803C282.739 224.147 285.861 220.161 288.566 215.909C289.307 214.742 290.039 213.521 290.289 212.162C290.539 210.802 290.224 209.259 289.159 208.359C287.788 207.202 285.703 207.477 284.054 208.194C281.766 209.195 279.82 210.94 278.403 212.593C278.254 209.774 277.115 207.009 274.984 204.988C272.927 206.577 271.278 208.699 269.824 211.344C270.166 208.975 269.666 206.348 267.924 204.695C266.183 203.041 263.051 202.784 261.439 204.557C260.383 205.723 260.179 207.404 260.151 208.965C260.04 214.531 261.587 220.106 264.432 225.47C257.242 217.452 252.804 207.046 251.832 196.474C249.488 194.886 247.375 192.957 244.883 190.633L244.865 190.642Z" fill="#0784C0"/>
<path d="M290.873 277.61C293.124 276.536 294.709 274.203 294.885 271.732C295.061 269.261 293.81 266.736 291.716 265.184C289.993 266.671 288.844 268.821 288.585 271.071C288.325 273.33 288.937 275.672 290.882 277.61H290.873Z" fill="#0784C0"/>
<path d="M295.756 261.317C301.073 239.072 306.382 216.836 310.968 195.051C308.707 197.209 306.354 199.432 303.39 200.46C300.425 201.489 296.673 200.966 294.866 198.422C293.513 196.511 293.541 193.985 293.819 191.671C294.394 186.867 295.811 182.165 298.572 177.977C298.479 180.374 298.396 182.854 299.295 185.086C300.184 187.318 302.324 189.246 304.742 189.118C306.994 188.998 308.772 187.235 310.153 185.481C318.25 175.231 320.955 161.004 316.62 147.934C322.41 152.857 327.265 158.855 330.85 165.532C332.916 169.38 334.602 173.734 333.815 178.023C333.194 181.421 331.054 184.406 328.432 186.693C325.819 188.98 322.725 190.651 319.992 191.717C326.403 195.951 328.923 204.492 327.543 212.005C326.171 219.518 321.53 226.076 314.97 230.687C318.389 223.541 319.769 215.45 318.908 207.588C318.741 206.091 318.315 204.355 316.916 203.767C315.554 203.197 313.933 204.125 313.219 205.411C312.515 206.697 312.478 208.231 312.441 209.7C312.219 219.417 311.357 229.171 308.884 238.567C306.41 247.963 302.269 257.046 295.756 261.335V261.317Z" fill="#0784C0"/>
<path d="M189.286 23.5766C188.434 23.4388 187.637 24.0082 186.961 24.5409C186.859 23.5306 187.378 22.4836 188.239 21.9417C189.101 21.3998 190.277 21.3815 190.741 21.6203C189.898 18.4333 190.444 14.9248 191.964 12.3715C189.388 13.5287 187.276 15.6595 186.053 18.6078C185.191 17.9465 184.191 17.4597 183.329 17.5515C183.264 18.4884 183.19 19.4344 183.171 20.6192C180.633 19.0945 178.799 16.477 177.965 13.9696C177.261 15.1177 176.853 16.431 176.39 18.2771C175.102 17.873 173.712 17.7995 172.517 17.9832C172.971 16.7433 172.869 15.3197 171.998 14.3737C171.683 15.531 170.59 16.4494 169.386 16.5413C170.043 16.33 170.423 15.6136 170.433 14.9248C170.433 14.2451 170.136 13.593 169.793 13.0052C169.441 12.4174 169.043 11.8572 168.793 11.2143C168.552 10.5805 168.487 9.8274 168.756 9.49675C169.543 9.22122 170.47 9.40491 171.016 9.80903C171.183 8.23848 171.906 6.72304 172.647 5.76785C171.035 5.29945 169.682 4.15139 168.672 2.81964C168.014 1.94711 167.477 0.98274 166.995 0C166.514 0.98274 165.976 1.94711 165.318 2.81964C164.309 4.15139 162.956 5.29945 161.344 5.76785C162.085 6.72304 162.817 8.2293 162.974 9.80903C163.521 9.41409 164.457 9.2304 165.235 9.49675C165.504 9.8274 165.439 10.5805 165.198 11.2143C164.957 11.8572 164.549 12.4174 164.197 13.0052C163.845 13.593 163.549 14.2451 163.558 14.9248C163.558 15.6044 163.947 16.33 164.605 16.5413C163.401 16.4402 162.298 15.531 161.992 14.3737C161.122 15.3197 161.029 16.7433 161.474 17.9832C160.278 17.7995 158.889 17.873 157.601 18.2771C157.138 16.431 156.73 15.1177 156.026 13.9696C155.201 16.477 153.358 19.0945 150.829 20.6192C150.81 19.4344 150.745 18.4884 150.671 17.5515C149.809 17.4597 148.809 17.9465 147.947 18.6078C146.724 15.6595 144.612 13.5287 142.036 12.3715C143.565 14.9248 144.102 18.4424 143.259 21.6203C143.723 21.3815 144.89 21.3998 145.761 21.9417C146.632 22.4836 147.141 23.5306 147.039 24.5409C146.363 24.0082 145.566 23.4388 144.714 23.5766C143.695 23.7327 143.083 24.8348 142.972 25.8543C142.842 27.0299 143.157 28.2423 143.852 29.2066C144.547 30.171 145.603 30.8599 146.771 31.117C145.242 31.7599 144.241 33.0549 144.177 34.4877C144.121 35.9205 145.168 37.39 146.604 37.5921C147.521 37.7207 148.429 37.3625 149.272 36.9767C150.115 36.591 150.977 36.1685 151.903 36.1593C152.83 36.1593 153.84 36.7104 153.988 37.6196C159.093 36.3981 162.168 36.0675 166.995 36.0675C171.822 36.0675 174.898 36.3981 180.003 37.6196C180.151 36.7104 181.161 36.1501 182.087 36.1593C183.014 36.1685 183.876 36.591 184.719 36.9767C185.562 37.3625 186.47 37.7207 187.387 37.5921C188.823 37.39 189.87 35.9205 189.814 34.4877C189.759 33.0549 188.749 31.7599 187.22 31.117C188.387 30.8599 189.444 30.171 190.138 29.2066C190.833 28.2423 191.148 27.0299 191.019 25.8543C190.907 24.8348 190.296 23.7327 189.277 23.5766H189.286ZM153.432 21.3631C155.461 20.3895 157.944 20.4998 159.954 21.5009C161.965 22.502 163.503 24.3389 164.225 26.8922C162.307 25.1287 159.713 24.1184 157.091 24.1184C154.47 24.1184 151.875 25.1287 149.819 26.635C149.921 24.4032 151.403 22.3275 153.432 21.3631ZM148.596 34.8367C149.476 31.6497 152.793 29.4363 156.128 29.3628C159.463 29.2893 162.669 31.1262 164.735 34.8C159.398 33.3764 153.701 33.3397 148.596 34.8367ZM174.046 21.5009C176.056 20.4998 178.539 20.3895 180.568 21.3631C182.597 22.3367 184.079 24.4124 184.181 26.635C182.115 25.1287 179.521 24.1184 176.909 24.1184C174.296 24.1184 171.693 25.1287 169.775 26.8922C170.497 24.3389 172.035 22.502 174.046 21.5009ZM169.265 34.8C171.331 31.1262 174.537 29.2985 177.872 29.3628C181.207 29.4363 184.515 31.6405 185.404 34.8367C180.309 33.3397 174.602 33.3764 169.265 34.8Z" fill="#0784C0"/>
<path d="M291.929 262.676C295.07 254.089 296.664 244.95 295.996 235.472C289.113 242.847 278.486 246.613 268.443 245.216C258.401 243.83 249.219 237.327 244.624 228.363C240.964 221.217 240.205 212.961 240.418 204.952C240.668 195.308 242.271 185.628 246.004 176.085C246.875 177.839 247.811 179.667 249.423 180.787C251.035 181.908 253.555 182.018 254.778 180.484C255.658 179.382 255.621 177.775 255.093 176.471C254.556 175.166 253.611 174.083 252.731 172.981C249.015 168.306 246.403 162.777 244.828 157.587C243.938 160.251 242.104 162.529 240.001 164.411C237.907 166.303 235.535 167.865 233.266 169.546C231.542 170.822 229.689 172.622 230.078 174.726C230.431 176.645 232.636 177.766 234.6 177.628C236.564 177.49 238.315 176.425 240.473 175.001C240.334 187.446 237.296 199.661 234.192 211.73C232.571 218.003 230.736 224.616 226.021 229.107C221.027 233.855 213.726 235.316 206.815 235.628C200.719 235.903 194.354 235.38 189.055 232.386C183.181 229.07 179.308 223.128 176.39 217.084C168.913 201.599 167.171 183.873 169.469 167.112C173.61 168.875 177.668 168.544 180.874 166.588C178.233 169.711 174.954 171.456 170.692 170.997C172.239 173.917 174.778 175.626 178.094 175.414C181.421 175.203 184.496 173.21 186.34 170.464C188.184 167.718 188.851 164.283 188.517 160.995C188.193 157.707 186.914 154.566 184.589 151.461C182.245 154.722 179.253 157.523 175.658 160.021C175.917 160.664 176.177 161.325 176.167 162.014C176.149 162.703 175.778 163.438 175.13 163.667C174.009 164.053 172.999 162.859 172.508 161.785C171.489 159.534 170.989 157.101 170.599 154.657C168.052 138.612 170.711 122.549 172.072 105.824C172.925 95.3625 173.972 84.4146 179.771 75.6342C181.448 73.0993 183.533 70.7297 184.385 67.809C185.747 63.1433 183.514 57.9449 179.771 54.8038C176.028 51.6627 171.452 50.331 166.986 50.331C162.521 50.331 157.953 51.6719 154.201 54.8038C150.458 57.9357 148.216 63.1433 149.587 67.809C150.44 70.7205 152.524 73.0901 154.201 75.6342C160.001 84.4054 161.048 95.3625 161.9 105.824C163.262 122.539 165.93 138.612 163.373 154.657C162.984 157.091 162.484 159.534 161.464 161.785C160.983 162.859 159.973 164.062 158.843 163.667C158.185 163.438 157.814 162.712 157.805 162.014C157.786 161.325 158.055 160.664 158.314 160.021C154.72 157.523 151.727 154.722 149.383 151.461C147.058 154.566 145.789 157.707 145.455 160.995C145.131 164.283 145.789 167.718 147.632 170.464C149.476 173.21 152.561 175.203 155.878 175.414C159.204 175.626 161.733 173.917 163.28 170.997C159.019 171.447 155.739 169.702 153.098 166.588C156.304 168.535 160.371 168.875 164.503 167.112C166.801 183.873 165.059 201.599 157.583 217.084C154.664 223.128 150.792 229.07 144.918 232.386C139.618 235.38 133.254 235.903 127.157 235.628C120.246 235.316 112.945 233.864 107.952 229.107C103.236 224.616 101.402 218.003 99.7804 211.73C96.6675 199.671 93.6287 187.455 93.4989 175.001C95.6576 176.425 97.4086 177.49 99.3727 177.628C101.337 177.766 103.542 176.645 103.894 174.726C104.283 172.622 102.43 170.822 100.707 169.546C98.437 167.865 96.0653 166.303 93.9714 164.411C91.8776 162.519 90.034 160.251 89.1446 157.587C87.5696 162.777 84.9477 168.306 81.2418 172.981C80.3617 174.083 79.4167 175.166 78.8793 176.471C78.342 177.775 78.3142 179.382 79.1943 180.484C80.4265 182.018 82.9372 181.908 84.5493 180.787C86.1613 179.667 87.0971 177.839 87.9679 176.085C91.7016 185.628 93.3044 195.299 93.5545 204.952C93.7676 212.961 93.0079 221.217 89.3484 228.363C84.7624 237.327 75.5718 243.82 65.529 245.216C55.4861 246.603 44.8595 242.847 37.9759 235.472C37.3088 244.959 38.9116 254.098 42.0431 262.676C44.1276 263.944 46.0176 265.606 47.2591 267.691C48.5098 269.776 49.0842 272.302 48.5561 274.671C48.028 277.041 46.3326 279.181 44.0257 279.998C44.4704 282.992 45.8138 285.876 47.5277 288.521C65.0843 277.849 85.5313 271.254 106.247 267.746C126.963 264.238 146.03 263.503 166.958 263.503C187.887 263.503 206.954 264.238 227.67 267.746C248.385 271.254 268.833 277.858 286.389 288.521C288.103 285.876 289.446 282.992 289.891 279.998C287.584 279.181 285.889 277.041 285.361 274.671C284.833 272.302 285.407 269.776 286.658 267.691C287.908 265.606 289.789 263.953 291.874 262.676H291.929ZM66.8445 269.757C63.3888 269.757 60.5909 266.984 60.5909 263.558C60.5909 260.132 63.3888 257.358 66.8445 257.358C70.3003 257.358 73.0982 260.132 73.0982 263.558C73.0982 266.984 70.3003 269.757 66.8445 269.757ZM90.5528 263.558C87.0971 263.558 84.2991 260.784 84.2991 257.358C84.2991 253.933 87.0971 251.159 90.5528 251.159C94.0085 251.159 96.8064 253.933 96.8064 257.358C96.8064 260.784 94.0085 263.558 90.5528 263.558ZM115.688 259.425C112.232 259.425 109.434 256.651 109.434 253.225C109.434 249.8 112.232 247.026 115.688 247.026C119.144 247.026 121.941 249.8 121.941 253.225C121.941 256.651 119.144 259.425 115.688 259.425ZM140.239 257.358C136.783 257.358 133.985 254.585 133.985 251.159C133.985 247.733 136.783 244.959 140.239 244.959C143.695 244.959 146.493 247.733 146.493 251.159C146.493 254.585 143.695 257.358 140.239 257.358ZM167.005 255.145C163.549 255.145 160.751 252.371 160.751 248.945C160.751 245.52 163.549 242.746 167.005 242.746C170.46 242.746 173.258 245.52 173.258 248.945C173.258 252.371 170.46 255.145 167.005 255.145ZM193.761 257.358C190.305 257.358 187.507 254.585 187.507 251.159C187.507 247.733 190.305 244.959 193.761 244.959C197.217 244.959 200.015 247.733 200.015 251.159C200.015 254.585 197.217 257.358 193.761 257.358ZM218.312 259.425C214.857 259.425 212.059 256.651 212.059 253.225C212.059 249.8 214.857 247.026 218.312 247.026C221.768 247.026 224.566 249.8 224.566 253.225C224.566 256.651 221.768 259.425 218.312 259.425ZM243.447 263.558C239.992 263.558 237.194 260.784 237.194 257.358C237.194 253.933 239.992 251.159 243.447 251.159C246.903 251.159 249.701 253.933 249.701 257.358C249.701 260.784 246.903 263.558 243.447 263.558ZM267.156 269.757C263.7 269.757 260.902 266.984 260.902 263.558C260.902 260.132 263.7 257.358 267.156 257.358C270.611 257.358 273.409 260.132 273.409 263.558C273.409 266.984 270.611 269.757 267.156 269.757Z" fill="#0784C0"/>
<path d="M255.88 327.335C253.851 326.628 251.461 325.884 248.691 325.112C244.485 327.923 215.699 329.466 166.995 329.466C118.291 329.466 89.5056 327.923 85.2995 325.112C82.5386 325.884 80.1483 326.637 78.1194 327.335C80.8895 329.016 95.0274 333.534 166.995 333.534C238.963 333.534 253.11 329.016 255.871 327.335H255.88Z" fill="#0784C0"/>
<path d="M245.745 324.322C242.78 323.551 239.454 322.761 235.73 321.98C223.436 319.381 198.162 315.955 166.995 315.955C135.829 315.955 110.555 319.39 98.2609 321.98C94.5458 322.761 91.2105 323.551 88.2458 324.322C93.0449 325.48 109.666 327.629 166.995 327.629C224.325 327.629 240.946 325.48 245.745 324.322Z" fill="#0784C0"/>
<path d="M257.863 328.051C255.714 330.384 242.271 335.371 166.995 335.371C91.7199 335.371 78.2955 330.393 76.1368 328.051C71.4952 329.796 69.2439 331.202 69.0586 331.89C70.2723 335.206 109.193 340.597 166.995 340.597C224.797 340.597 263.885 335.178 264.941 331.872C264.802 331.211 262.551 329.815 257.863 328.051Z" fill="#0784C0"/>
<path d="M274.929 304.521C274.706 302.427 275.244 300.167 276.763 298.698C278.282 297.228 280.867 296.797 282.581 298.046C282.581 298.046 284.508 295.603 283.48 293.83C266.516 282.487 246.699 275.828 226.539 272.311C206.379 268.793 187.081 267.976 166.995 267.976C146.91 267.976 127.602 268.793 107.451 272.311C87.3008 275.828 67.4837 282.487 50.5108 293.83C49.4825 295.603 51.4095 298.046 51.4095 298.046C53.1235 296.806 55.7083 297.228 57.2277 298.698C58.7471 300.167 59.2937 302.427 59.0621 304.521C58.6267 308.608 55.2636 312.217 51.1872 312.98C51.6967 315.68 52.2804 318.444 52.8641 321.209C53.4663 324.065 54.087 326.958 55.4952 329.521C56.9034 332.083 60.5815 348 166.986 348C273.391 348 277.078 332.083 278.477 329.521C279.876 326.958 280.497 324.065 281.108 321.209C281.692 318.444 282.285 315.68 282.785 312.98C278.708 312.217 275.355 308.608 274.91 304.521H274.929ZM212.763 280.889C214.004 279.778 215.764 279.374 217.441 279.392C219.563 279.41 221.731 280.053 223.324 281.44C224.918 282.827 225.872 285.013 225.502 287.079C225.168 288.971 223.815 290.56 222.203 291.626C220.591 292.691 218.729 293.306 216.895 293.903C215.375 292.838 213.133 291.029 211.892 288.558C210.65 286.087 210.697 282.744 212.763 280.898V280.889ZM110.675 281.431C112.269 280.044 114.437 279.401 116.559 279.383C118.235 279.374 119.986 279.768 121.237 280.88C123.303 282.726 123.359 286.069 122.108 288.54C120.867 291.01 118.625 292.82 117.105 293.885C115.271 293.288 113.409 292.673 111.797 291.607C110.184 290.542 108.832 288.953 108.498 287.061C108.128 284.985 109.073 282.809 110.675 281.422V281.431ZM236.628 339.89C217.071 342.094 191.695 343.362 166.995 343.362C142.296 343.362 116.92 342.094 97.3622 339.89C67.1965 336.483 67.1965 333.038 67.1965 331.909C67.1965 328.869 76.7391 325.571 85.2255 323.248C85.2625 323.229 85.3089 323.22 85.3552 323.211C90.5712 321.787 95.3703 320.722 97.2788 320.318C109.721 317.664 135.329 313.2 166.995 313.2C198.662 313.2 224.269 317.654 236.712 320.318C238.62 320.722 243.419 321.787 248.635 323.22C248.672 323.229 248.719 323.239 248.756 323.257C257.242 325.59 266.785 328.878 266.785 331.927C266.785 333.057 266.785 336.51 236.619 339.908L236.628 339.89ZM264.015 323.643C263.135 323.643 262.31 323.45 261.56 323.11C248.404 318.352 218.053 307.506 166.995 307.506C115.938 307.506 85.5868 318.352 72.431 323.11C71.6806 323.45 70.856 323.643 69.9759 323.643C66.6869 323.643 64.0187 320.998 64.0187 317.737C64.0187 314.477 66.6869 311.831 69.9759 311.831C73.0147 311.831 75.5161 314.091 75.8775 317.002C91.2475 311.666 120.802 301.995 166.986 301.995C213.17 301.995 242.725 311.666 258.095 317.002C258.456 314.091 260.957 311.831 263.996 311.831C267.285 311.831 269.953 314.477 269.953 317.737C269.953 320.998 267.285 323.643 263.996 323.643H264.015Z" fill="#0784C0"/>
</g>
<defs>
<clipPath id="clip0_40_71">
<rect width="334" height="348" fill="white"/>
</clipPath>
</defs>
</svg>
