<svg width="591" height="72" viewBox="0 0 591 72" fill="none" xmlns="http://www.w3.org/2000/svg">
<path d="M94.8921 36.8663C93.6112 36.8663 92.5517 35.8372 92.5201 34.5549C92.4885 33.2409 93.5321 32.1485 94.8288 32.1168C192.316 29.7738 291.4 30.502 387.227 31.1986C453.089 31.6735 521.179 32.1802 588.132 31.6736H588.147C589.444 31.6736 590.504 32.7184 590.519 34.0324C590.519 35.3465 589.476 36.423 588.163 36.423C521.179 36.9296 453.057 36.423 387.18 35.9481C291.385 35.2515 192.332 34.5232 94.9237 36.8663H94.8604H94.8921Z" fill="#C6B56F"/>
<path d="M25.6805 68.3394C26.5134 66.6296 27.3149 64.6982 27.5035 62.7825C27.645 61.3577 27.425 59.7429 26.3406 58.7138C25.1933 57.6373 21.9873 57.5106 21.4529 55.7533C21.9873 56.07 22.4744 56.4974 23.1188 56.7032C23.9203 56.9565 24.659 57.0832 25.4762 56.8932C26.9535 56.5449 28.9022 55.2784 29.3894 53.7744C29.468 53.5369 29.3266 53.3311 29.0908 53.347C27.5978 53.3628 26.6706 53.0778 25.6491 51.938C24.6904 50.8614 24.3289 49.6107 24.156 48.2017C23.8732 45.8903 24.156 42.9773 25.0361 40.8084C25.9162 38.6553 27.0792 36.4547 28.6822 34.7766C29.2794 34.1592 29.9709 33.6525 30.5996 33.0984C29.0123 35.9639 28.085 39.2094 27.7707 42.4865C27.535 45.0037 27.535 47.5526 28.0222 50.0382C28.1793 50.8456 28.305 52.0963 29.1066 52.4762C29.3423 53.2678 29.6409 54.0277 30.0495 54.7085C31.4325 57.004 33.5699 58.6188 35.9744 59.5846C36.7602 59.9962 37.6403 60.297 38.6147 60.4395C39.0547 60.5028 39.479 60.5345 39.9191 60.5503C40.2963 60.582 40.6577 60.6136 41.0349 60.6294C41.1292 60.6294 41.1921 60.5978 41.2392 60.5503C48.6885 60.2178 53.9848 54.1702 51.596 49.4366C48.94 44.1647 43.2508 46.761 43.6909 50.5764C43.6909 50.5764 43.2823 52.0646 44.7281 52.6187C46.174 53.1728 43.9423 55.4367 41.3492 54.376C38.7561 53.3153 33.0198 50.6239 38.819 38.2279C44.9796 25.056 58.4009 17.3144 80.6546 31.8478C95.0975 41.2833 98.6022 35.299 97.5335 30.5971C97.5492 30.3596 97.4706 30.1063 97.3292 29.8688C96.9206 28.6498 96.1819 27.5891 95.2704 27.0191C93.3531 23.2671 93.4945 18.0268 94.0917 14.2114C94.5318 11.3459 96.3076 9.03453 98.3036 7.03976C100.692 4.6492 105.989 4.79169 105.234 9.12952C104.999 10.4435 104.26 11.5676 103.285 12.4225C102.421 10.966 99.8594 11.7101 100.551 13.4357C100.944 14.4331 101.148 14.813 101.903 15.5888C102.358 16.0796 103.144 16.1587 103.71 15.8263C107.262 13.689 109.446 9.20868 107.796 5.17164C106.004 0.786313 100.598 1.83119 97.5335 3.8418C90.3042 8.57542 88.2297 22.0797 93.1802 29.473C93.2588 31.6894 92.693 34.3333 89.1884 33.4467C84.8979 32.3702 78.2344 26.1326 67.1075 23.3779C67.1861 23.3304 67.249 23.2671 67.2804 23.2037C69.3392 23.7737 71.9166 24.312 73.7868 23.3937C74.6983 22.9504 77.48 20.3857 75.987 19.3409C74.9969 18.6443 73.7868 19.8 74.3369 20.7973C72.5767 21.3673 70.1721 21.0823 68.5691 20.9715C67.4062 20.8923 66.2432 20.5915 65.1902 20.0691C64.4987 19.61 63.8072 19.1034 63.1471 18.5334C62.8957 18.2643 62.6128 18.0268 62.4085 17.726C62.3771 17.6785 62.3614 17.6152 62.3299 17.5677C62.3299 17.5519 62.3299 17.5361 62.3299 17.5202C62.0628 16.9345 61.7327 16.3487 61.5441 15.7313C61.2455 15.0505 61.1984 14.3223 61.4027 13.5465C62.8643 13.0241 63.54 13.2141 63.3829 14.1481C63.3829 14.3856 63.6501 14.4647 63.8229 14.4172C64.153 14.3381 64.3573 14.1323 64.4987 13.8473C64.5459 13.7998 64.593 13.7365 64.6087 13.6573C64.6087 13.6257 64.6087 13.6098 64.6087 13.5782C64.7816 13.0082 64.7344 12.28 64.6087 11.805C64.1687 10.1427 62.88 9.66779 61.3241 9.54114C61.3241 9.50948 61.2612 9.50948 61.2455 9.47782C61.5127 8.79706 61.8899 8.19547 62.5028 7.62553C62.9743 7.18225 64.3101 6.02654 65.2374 5.93156C64.7502 6.48566 65.2216 7.21391 66.2117 7.35639C67.8776 7.59387 68.7577 5.96322 68.3805 4.44339C67.8776 2.44862 65.6931 0.944628 63.7443 0.817976C63.2257 0.786313 62.6757 0.849639 62.1256 0.976291C60.0826 0.897134 57.9295 1.54623 56.4522 2.95523C54.5191 4.80752 53.9062 7.53054 54.1262 10.1269C54.0634 10.1744 54.0005 10.2219 53.9376 10.2694C53.8433 10.2536 53.7805 10.2377 53.7805 10.2377C53.7805 10.2377 53.6548 10.3485 53.5133 10.586C52.3346 11.5517 51.5331 12.7866 51.486 14.4489C51.486 14.7655 51.5331 15.0663 51.5645 15.3671C46.4569 15.3355 42.3393 14.4647 37.3731 11.2509C35.3615 9.93693 29.8138 3.28769 35.0314 3.58849C36.9645 3.69931 36.9331 0.722987 35.0314 0.580503C26.2148 -0.0685889 20.5885 9.08203 25.2562 17.1403C27.7864 21.4939 31.7625 24.2328 36.8859 24.5019C37.7817 24.5494 38.6147 24.5336 39.4319 24.5019C37.1216 25.8634 34.9843 27.4941 33.1141 29.5205C32.5326 30.1538 32.0454 30.8662 31.5582 31.5786C30.3638 32.0536 26.6392 34.0008 24.2346 37.1038C21.6258 40.4601 20.1799 44.608 18.6712 48.55C17.8854 50.6081 16.9896 52.777 15.5595 54.471C14.2079 56.0858 13.1078 57.8748 11.6462 59.3946C10.1061 60.9936 8.45589 62.7192 6.64856 64.0016C4.63693 65.4264 2.71959 66.1388 0.28363 66.3288C0.0636081 66.3446 -0.0935507 66.6296 0.0636081 66.8037C0.676527 67.5162 1.76092 67.627 2.64101 67.7695C4.08687 68.0228 5.48559 68.0069 6.94716 67.8645C9.83888 67.5953 12.4792 67.1204 14.8837 65.4264C15.8424 64.7456 16.801 64.0491 17.5554 63.1308C18.0269 62.5609 18.1212 61.9118 18.8755 61.9435C19.4727 61.9751 19.7713 62.5134 20.1799 62.925C21.5158 64.3024 22.4902 65.3156 22.7259 67.2945C22.8831 68.751 22.8831 70.16 22.9302 71.6165C22.9302 71.8065 23.166 71.949 23.3388 71.8698C24.4704 71.3316 25.1461 69.3526 25.6491 68.3077L25.6805 68.3394ZM55.3521 10.966C55.1478 10.8077 54.9435 10.6968 54.7549 10.6019C54.472 8.30628 54.7549 5.97905 56.2479 4.07927C57.1908 2.86024 58.5895 2.10033 60.0668 1.76787C59.0924 2.30614 58.2124 3.01856 57.678 3.82596C55.9807 6.35901 55.8235 9.16119 56.4993 11.8842C56.075 11.5043 55.6821 11.1876 55.3364 10.966H55.3521ZM34.7486 28.7131C36.6345 26.8925 38.7561 25.4677 41.0349 24.2961C43.078 24.0112 44.9953 23.4254 47.1955 22.5388C49.2543 21.6997 51.6746 22.428 53.8591 22.1272C54.3934 22.2697 54.7234 21.5098 55.2578 21.6839C55.9021 21.8897 56.515 21.9847 57.1594 22.0797C56.0907 22.0639 54.9906 22.0797 53.8591 22.1272C43.2194 22.6496 36.7287 28.1432 33.0041 33.9375C32.564 34.2541 27.755 41.4575 28.4465 48.7083C28.5251 49.4524 28.6194 50.2281 28.7608 51.0039C28.3208 49.6582 28.2736 47.3468 28.2579 46.8085C28.1636 44.4496 28.3365 42.0433 28.8237 39.7318C29.7509 35.3624 31.5739 31.7844 34.7643 28.6973L34.7486 28.7131Z" fill="#C6B56F"/>
</svg>
