<svg width="227" height="105" viewBox="0 0 227 105" fill="none" xmlns="http://www.w3.org/2000/svg">
<path d="M130.069 26.0271C129.487 25.8688 125.338 23.0032 123.012 20.5019C117.967 14.5492 113.347 0.0317145 113.111 5.14863e-05C112.891 -0.0316116 108.318 14.5492 103.273 20.5019C100.947 23.0032 96.798 25.9004 96.2166 26.0271C106.432 23.8107 113.001 44.5974 113.205 44.5974C113.41 44.5974 120.938 23.5257 130.053 26.0271H130.069Z" fill="#C6B56F"/>
<path d="M14.5726 18.7762C14.2582 19.2195 13.9754 19.6786 13.7553 20.1061C11.1937 25.3147 11.7908 30.9032 14.0854 35.811C14.5568 37.3308 15.3426 38.8506 16.4899 40.3546C18.4701 42.9668 21.3461 45.5948 24.6464 47.7638C25.4794 48.3654 26.3123 48.9353 27.1767 49.4577C25.0707 49.1569 23.1063 48.682 21.1732 47.9854C20.356 47.5105 19.5545 47.0038 18.8159 46.4497C18.7373 46.3231 18.643 46.1964 18.4701 46.1173C18.3758 46.0698 18.2815 46.0065 18.1872 45.959C17.5114 45.4049 16.8671 44.8191 16.2856 44.1858C12.5923 40.2121 9.00913 34.6553 9.16629 29.0351C9.2763 24.9664 11.508 21.4201 14.5726 18.7762ZM4.38865 29.415C5.033 33.1829 7.37467 36.3176 9.65347 39.3731C10.6907 40.7662 11.7123 42.2386 12.8438 43.6001C11.3508 42.666 9.8735 41.7161 8.52193 40.6237C5.7245 38.3757 1.07263 33.1671 4.37296 29.415H4.38865ZM23.9235 52.0224C23.4992 51.9591 23.0591 51.8958 22.6348 51.8166C19.1302 51.1517 15.6884 50.0752 12.6395 48.207C10.5493 46.9247 6.1017 43.3309 5.74024 40.3546C6.57318 41.162 7.46899 41.9061 8.39622 42.6027C12.6709 45.7848 16.9457 48.3654 21.6604 49.8852C23.7978 50.9617 26.0923 51.7691 28.4968 52.3866C27.1138 52.3866 25.7308 52.2916 24.3321 52.1016C24.2064 52.0541 24.065 52.0224 23.9235 52.0383V52.0224Z" fill="#C6B56F"/>
<path d="M31.31 68.6138C31.1843 66.6507 28.3554 63.7694 29.377 61.6955C29.597 62.4554 29.6755 63.2628 30.0842 64.0069C30.6028 64.9251 31.1529 65.685 32.0801 66.2074C33.7303 67.1573 36.5905 67.6956 38.3036 66.7299C38.5707 66.5874 38.6179 66.2866 38.3979 66.0649C37.0149 64.7984 36.4177 63.7377 36.4491 61.8221C36.4805 60.0173 37.2192 58.5608 38.2564 57.136C39.9537 54.7929 42.6883 52.3707 45.3443 51.1517C47.9846 49.9485 50.9077 48.9352 53.7837 48.7928C55.7639 48.6978 57.7284 49.2835 59.6457 48.6028C59.9286 48.492 59.9443 48.1278 59.74 47.9379C59.6457 47.8587 59.5514 47.7795 59.4571 47.6846C59.3314 47.5737 59.19 47.5737 59.0642 47.6371C58.027 46.893 56.1096 46.9405 54.9781 46.7663C52.5893 46.418 50.1376 46.6555 47.7803 47.0513C42.5469 47.922 37.7063 50.4076 32.9759 52.7031C30.4928 53.9063 27.8525 55.0937 25.1179 55.4262C22.5091 55.7428 19.9946 56.4236 17.37 56.5502C14.604 56.6927 11.6337 56.8352 8.89918 56.4552C5.8503 56.0278 3.50862 55.0145 1.1198 53.0831C0.915497 52.909 0.522577 53.0514 0.506861 53.3364C0.475429 54.5079 1.35552 55.537 2.0313 56.4552C3.13141 57.9275 4.42012 59.1307 5.86598 60.2548C8.74199 62.5029 11.5394 64.3393 15.1855 64.8776C16.6471 65.0834 18.0929 65.2734 19.5702 65.0992C20.4975 64.9884 21.1261 64.466 21.7705 65.1626C22.2734 65.7008 22.1005 66.4449 22.1162 67.189C22.1633 69.5954 22.2105 71.3685 20.7175 73.3633C19.6174 74.8356 18.423 76.118 17.2286 77.4953C17.0714 77.6695 17.1657 78.0019 17.3857 78.0811C18.8788 78.556 21.1733 77.337 22.5248 76.8146C24.7408 75.9755 27.1139 74.9148 28.9212 73.3158C30.257 72.1443 31.4357 70.4819 31.31 68.598V68.6138Z" fill="#C6B56F"/>
<path d="M110.329 75.1839C110.031 73.6958 107.941 73.7116 107.579 75.0889C105.489 74.0915 103.54 71.7485 102.173 70.2761C100.161 68.1072 98.8883 65.0201 99.3126 61.9804C99.7212 59.1783 101.591 56.2811 103.729 54.4605C105.017 53.3681 106.29 52.8456 107.988 52.8615C108.789 52.8615 111.005 52.9565 111.917 53.6689C111.005 53.7639 110.801 54.8246 111.602 55.8061C112.922 57.4526 115.107 56.7402 116.05 55.0304C117.292 52.7823 116.584 49.521 114.903 47.7321C114.463 47.2571 113.913 46.8455 113.284 46.4814C111.477 44.6607 108.962 43.3942 106.432 43.4101C102.833 43.4417 99.7212 45.674 97.7253 48.5395C95.4622 51.7691 94.2049 55.1412 94.362 59.0833C94.5349 63.6586 96.4209 67.094 98.5739 71.0202C98.6997 71.2419 98.9511 71.2735 99.124 71.1944C100.523 73.5058 102.409 76.1971 104.907 76.9729C106.118 77.3528 110.832 77.4162 110.361 75.1681L110.329 75.1839ZM97.0338 51.1042C98.8254 47.8271 101.434 44.8666 105.316 44.265C107.218 43.98 109.119 44.4708 110.769 45.4523C109.418 45.0882 108.019 45.009 106.84 45.2782C99.5954 46.9405 96.7666 54.6188 96.2166 61.363C96.0908 62.8828 96.2322 64.2918 96.578 65.6533C95.9808 64.3393 95.4936 62.9778 95.2893 61.5213C94.755 57.7376 95.195 54.4446 97.0338 51.1042Z" fill="#C6B56F"/>
<path d="M119.335 85.3478C119.335 85.3478 114.4 94.6567 110.361 88.3558C106.636 82.5456 106.353 77.4004 91.769 62.4238C92.0362 62.4079 92.2719 62.0913 92.0676 61.8222C91.0303 60.429 90.1817 59.0991 89.2859 57.5951C88.5787 56.4078 87.6986 55.3471 86.5828 54.5238C84.2568 52.8298 81.4594 51.5158 78.8349 50.376C73.6486 48.1279 68.2266 47.1147 62.5846 47.4946C56.6283 47.9062 51.1435 50.7876 46.6959 54.7296C44.3385 56.8194 42.1697 59.1466 40.5038 61.838C39.9695 62.7087 39.0108 63.9436 39.4194 65.0043C38.9636 65.9225 38.5865 66.8724 38.3822 67.8381C37.6749 71.1153 38.2565 74.4399 39.6395 77.4004C40.0009 78.4611 40.5509 79.4901 41.321 80.44C41.6668 80.8675 42.0282 81.2791 42.4054 81.659C42.7197 82.0232 43.0341 82.3715 43.3484 82.7039C43.427 82.7831 43.5213 82.8147 43.5998 82.7989C50.672 88.9257 60.6515 87.9758 62.4903 81.5957C64.5491 74.4874 57.1469 71.9543 54.3023 75.8172C54.3023 75.8172 52.6679 76.8304 53.5166 78.5877C54.3652 80.345 50.4048 80.4875 48.9432 77.2737C47.4816 74.0599 44.5428 66.6666 60.353 60.3657C77.1532 53.6689 95.9809 58.1809 103.933 90.6197C111.87 123.074 127.287 88.6566 119.303 85.3636L119.335 85.3478ZM58.7342 51.4525C58.0585 51.3734 47.5602 53.7797 42.0282 60.9989C41.4625 61.743 40.881 62.5346 40.3624 63.3578C41.101 61.7588 43.0184 59.6057 43.4584 59.0991C45.3757 56.8669 47.5759 54.8246 49.9805 53.1307C54.5381 49.9485 59.2371 48.2545 64.7691 48.1912C69.9868 48.1279 74.9373 49.3944 79.6678 51.595C82.0095 52.6874 84.6811 53.8747 86.6613 55.5529C87.9186 56.6136 88.673 58.0384 89.4431 59.4633C89.8517 60.2073 90.3388 60.8248 90.8418 61.458C89.8831 60.524 88.8773 59.5899 87.7929 58.6558C77.6561 49.9643 67.0636 49.3786 58.7342 51.4367V51.4525Z" fill="#C6B56F"/>
<path d="M99.2026 68.5981C98.794 68.6456 98.4011 68.5347 98.0239 68.3131C98.0082 68.2498 97.9767 68.2023 97.9139 68.1548C97.741 68.0123 97.5367 67.8856 97.3481 67.7748C96.3423 66.7774 95.525 65.131 95.0536 64.2444C94.142 62.5346 93.1519 60.6823 93.1048 58.7034C93.0577 56.7402 93.3877 54.5238 94.0949 52.6715C94.6921 51.1201 96.358 49.2678 98.0868 48.9195C98.1968 48.5712 98.3696 48.2546 98.5739 47.9854C96.2008 47.5105 93.922 47.7796 92.1304 49.6002C90.5117 51.2467 89.8673 53.5423 90.0716 55.8062C90.3074 58.4342 90.6531 61.4422 92.0833 63.7378C92.8219 64.9093 93.7649 65.97 94.7864 66.9041C95.3679 67.4265 95.9651 67.7748 96.578 68.1389C97.3009 68.978 98.1967 69.6271 99.2969 69.4371C99.8155 69.3421 99.7212 68.5506 99.2026 68.6139V68.5981Z" fill="#C6B56F"/>
<path d="M104.845 60.0965C105.489 59.7324 106.055 59.02 106.353 58.4817C107.359 56.5819 106.589 55.0463 105.285 53.5898C105.332 53.4789 105.332 53.3523 105.222 53.2256C104.64 52.529 102.534 52.4657 102.817 53.7797C102.864 54.0172 103.163 54.223 103.32 54.3813C103.603 54.7138 103.87 55.0779 104.137 55.4262C104.797 56.5503 105.379 58.2284 104.562 59.2574C104.483 59.3524 104.389 59.4474 104.294 59.5266C105.033 58.2442 104.75 56.3919 102.943 56.2653C100.161 56.0753 99.3754 59.4158 98.7311 61.4422C98.5739 61.933 99.2968 62.2338 99.4697 61.743C99.7212 60.9831 99.9098 60.144 100.24 59.4158C100.538 58.5292 101.12 57.8168 101.953 57.2943C103.729 58.0859 104.169 58.83 103.257 59.5424C103.053 59.7482 103.226 60.049 103.43 60.1598C103.792 60.3656 104.169 60.3498 104.53 60.2232C104.609 60.2232 104.703 60.2232 104.797 60.144C104.829 60.1282 104.845 60.0965 104.86 60.0807L104.845 60.0965Z" fill="#C6B56F"/>
<path d="M23.232 53.8431C23.232 53.8431 8.01907 56.8036 2.98998 50.7718C-2.02338 44.7399 1.76417 42.7927 2.91142 44.3283C4.05868 45.864 8.30194 54.6505 23.2163 53.8431H23.232Z" fill="#C6B56F"/>
<path d="M218.156 29.0351C218.313 34.6553 214.714 40.2121 211.037 44.1858C210.455 44.8191 209.811 45.4049 209.135 45.959C209.041 46.0065 208.946 46.0698 208.852 46.1173C208.679 46.1964 208.585 46.3231 208.506 46.4497C207.768 47.0038 206.966 47.5105 206.149 47.9854C204.216 48.682 202.252 49.1728 200.146 49.4577C201.01 48.9353 201.843 48.3654 202.676 47.7638C205.976 45.5948 208.852 42.9668 210.832 40.3546C211.964 38.8506 212.75 37.3308 213.237 35.811C215.547 30.9032 216.144 25.3305 213.567 20.1061C213.347 19.6628 213.08 19.2195 212.75 18.7762C215.814 21.4201 218.046 24.9822 218.156 29.0351ZM218.785 40.6237C217.433 41.7161 215.956 42.666 214.463 43.6001C215.594 42.2386 216.616 40.7662 217.653 39.3731C219.932 36.3176 222.274 33.1829 222.918 29.415C226.218 33.1671 221.566 38.3757 218.769 40.6237H218.785ZM202.99 52.0858C201.591 52.2757 200.193 52.3707 198.825 52.3707C201.23 51.7533 203.524 50.9459 205.662 49.8693C210.377 48.3495 214.651 45.769 218.926 42.5868C219.869 41.8903 220.765 41.1462 221.582 40.3388C221.221 43.3151 216.757 46.9247 214.683 48.1912C211.634 50.0593 208.192 51.1359 204.687 51.8008C204.247 51.88 203.823 51.9433 203.399 52.0066C203.257 51.9749 203.116 52.0066 202.99 52.0699V52.0858Z" fill="#C6B56F"/>
<path d="M198.401 73.3317C200.209 74.9148 202.566 75.9914 204.798 76.8304C206.149 77.337 208.444 78.5719 209.937 78.0969C210.157 78.0178 210.251 77.6853 210.094 77.5112C208.899 76.1338 207.705 74.8515 206.605 73.3791C205.128 71.3844 205.159 69.6112 205.206 67.2049C205.206 66.4766 205.049 65.7167 205.552 65.1784C206.196 64.4977 206.841 65.0043 207.752 65.1151C209.229 65.3051 210.675 65.1151 212.137 64.8935C215.783 64.3552 218.58 62.5187 221.456 60.2707C222.902 59.1308 224.191 57.9434 225.291 56.4711C225.967 55.5687 226.863 54.5396 226.815 53.3523C226.815 53.0673 226.407 52.9248 226.203 53.099C223.814 55.0463 221.472 56.0436 218.423 56.4711C215.689 56.851 212.718 56.7086 209.952 56.5661C207.312 56.4394 204.813 55.7587 202.204 55.442C199.47 55.1096 196.814 53.9222 194.347 52.719C189.616 50.4234 184.776 47.9379 179.542 47.0672C177.185 46.6714 174.717 46.4339 172.344 46.7822C171.213 46.9405 169.28 46.9089 168.258 47.6529C168.148 47.5896 168.007 47.5738 167.865 47.7004C167.771 47.7796 167.677 47.8587 167.582 47.9537C167.378 48.1437 167.378 48.5078 167.677 48.6187C169.578 49.2994 171.558 48.7136 173.539 48.8086C176.415 48.9511 179.354 49.9643 181.978 51.1675C184.634 52.3707 187.353 54.7929 189.066 57.1518C190.103 58.5767 190.842 60.049 190.873 61.838C190.92 63.7536 190.308 64.8143 188.925 66.0808C188.689 66.2866 188.752 66.5874 189.019 66.7457C190.732 67.6956 193.576 67.1732 195.242 66.2233C196.17 65.685 196.72 64.9409 197.238 64.0227C197.663 63.2786 197.725 62.4712 197.945 61.7113C198.951 63.7852 196.138 66.6666 196.012 68.6297C195.887 70.4978 197.065 72.1601 198.401 73.3475V73.3317Z" fill="#C6B56F"/>
<path d="M122.446 76.9888C124.929 76.213 126.831 73.5058 128.23 71.2102C128.418 71.2894 128.654 71.2577 128.78 71.0361C130.933 67.1099 132.819 63.6744 132.992 59.0991C133.149 55.1413 131.892 51.7691 129.628 48.5553C127.617 45.6898 124.521 43.4576 120.922 43.4259C118.392 43.4101 115.861 44.6766 114.07 46.4972C113.457 46.8614 112.891 47.273 112.451 47.7479C110.769 49.5369 110.046 52.7982 111.304 55.0463C112.247 56.7561 114.431 57.4685 115.751 55.822C116.537 54.8404 116.349 53.7797 115.437 53.6848C116.349 52.9723 118.564 52.8773 119.366 52.8773C121.048 52.8615 122.336 53.384 123.625 54.4763C125.747 56.297 127.633 59.1941 128.041 61.9963C128.481 65.0359 127.208 68.1073 125.181 70.292C123.814 71.7643 121.865 74.1074 119.775 75.1048C119.413 73.7275 117.323 73.7116 117.024 75.1998C116.569 77.4479 121.268 77.3845 122.478 77.0046L122.446 76.9888ZM132.033 61.5214C131.829 62.9779 131.342 64.3394 130.744 65.6534C131.09 64.2919 131.231 62.8829 131.106 61.363C130.556 54.6346 127.727 46.9405 120.482 45.2782C119.303 45.0091 117.904 45.1041 116.553 45.4524C118.203 44.4708 120.105 43.98 122.006 44.265C125.872 44.8508 128.497 47.8271 130.289 51.1042C132.127 54.4447 132.567 57.7535 132.033 61.5214Z" fill="#C6B56F"/>
<path d="M123.358 90.6038C131.294 58.1492 150.122 53.6531 166.938 60.3498C182.748 66.6507 179.809 74.044 178.348 77.2578C176.886 80.4716 172.926 80.3292 173.774 78.5719C174.623 76.8146 172.989 75.8013 172.989 75.8013C170.16 71.9543 162.758 74.4715 164.801 81.5798C166.639 87.9599 176.619 88.9098 183.691 82.783C183.77 82.783 183.864 82.7672 183.943 82.6881C184.273 82.3556 184.587 82.0073 184.886 81.6432C185.263 81.2632 185.624 80.8516 185.97 80.4241C186.74 79.4743 187.29 78.4452 187.652 77.3845C189.035 74.424 189.616 71.1152 188.909 67.8223C188.704 66.8565 188.327 65.9066 187.872 64.9884C188.28 63.9435 187.322 62.6928 186.787 61.8221C185.121 59.1308 182.952 56.8194 180.595 54.7138C176.148 50.7717 170.663 47.8904 164.706 47.4788C159.064 47.0988 153.642 48.112 148.456 50.3601C145.832 51.5 143.034 52.814 140.708 54.508C139.592 55.3312 138.712 56.3761 138.005 57.5793C137.109 59.0833 136.261 60.4131 135.223 61.8063C135.019 62.0913 135.255 62.392 135.522 62.4079C120.938 77.3845 120.655 82.5297 116.93 88.3399C112.891 94.6409 107.956 85.3319 107.956 85.3319C99.9727 88.6249 115.39 123.043 123.326 90.588L123.358 90.6038ZM139.53 58.6716C138.445 59.5899 137.439 60.5239 136.481 61.4738C136.984 60.8406 137.471 60.2231 137.879 59.479C138.649 58.0542 139.404 56.6294 140.661 55.5687C142.641 53.8747 145.297 52.7032 147.655 51.6108C152.385 49.4102 157.336 48.1437 162.553 48.207C168.085 48.2703 172.8 49.9643 177.342 53.1464C179.746 54.8246 181.947 56.8827 183.864 59.1149C184.304 59.6215 186.237 61.7746 186.96 63.3736C186.441 62.5345 185.86 61.743 185.294 61.0147C179.762 53.7955 169.248 51.3891 168.588 51.4683C160.259 49.3944 149.666 49.9801 139.53 58.6875V58.6716Z" fill="#C6B56F"/>
<path d="M128.12 68.5981C128.528 68.6456 128.921 68.5347 129.298 68.3131C129.314 68.2498 129.346 68.2023 129.408 68.1548C129.581 68.0123 129.786 67.8856 129.974 67.7748C130.98 66.7774 131.797 65.131 132.269 64.2444C133.18 62.5346 134.17 60.6823 134.217 58.7034C134.265 56.7402 133.935 54.5238 133.227 52.6715C132.63 51.1201 130.964 49.2678 129.236 48.9195C129.126 48.5712 128.953 48.2546 128.748 47.9854C131.121 47.5105 133.4 47.7796 135.192 49.6002C136.811 51.2467 137.455 53.5423 137.251 55.8062C137.015 58.4342 136.669 61.4422 135.239 63.7378C134.5 64.9093 133.557 65.97 132.536 66.9041C131.954 67.4265 131.357 67.7748 130.744 68.1389C130.021 68.978 129.126 69.6271 128.025 69.4371C127.507 69.3421 127.601 68.5506 128.12 68.6139V68.5981Z" fill="#C6B56F"/>
<path d="M122.541 60.1599C122.635 60.239 122.729 60.2549 122.808 60.239C123.169 60.3657 123.546 60.3815 123.908 60.1757C124.112 60.0649 124.269 59.7641 124.081 59.5583C123.169 58.8459 123.594 58.1018 125.385 57.3102C126.218 57.8326 126.8 58.5451 127.098 59.4316C127.444 60.1599 127.633 60.9831 127.868 61.7589C128.025 62.2496 128.748 61.933 128.607 61.4581C127.963 59.4316 127.177 56.107 124.395 56.2812C122.604 56.4078 122.321 58.2601 123.044 59.5424C122.949 59.4633 122.855 59.3683 122.776 59.2733C121.959 58.2601 122.541 56.582 123.201 55.4421C123.468 55.0938 123.719 54.7297 124.018 54.3972C124.159 54.2389 124.458 54.0331 124.521 53.7956C124.804 52.4816 122.698 52.5449 122.116 53.2415C122.006 53.3682 122.006 53.5106 122.053 53.6056C120.749 55.0621 119.979 56.5978 120.985 58.4976C121.268 59.0358 121.833 59.7324 122.494 60.1124C122.525 60.1282 122.541 60.1599 122.556 60.1757L122.541 60.1599Z" fill="#C6B56F"/>
<path d="M204.09 53.8431C204.09 53.8431 219.303 56.8036 224.332 50.7718C229.346 44.7399 225.558 42.7927 224.411 44.3283C223.264 45.864 219.02 54.6505 204.106 53.8431H204.09Z" fill="#C6B56F"/>
<path d="M113.363 100.768C108.538 100.768 104.64 96.8415 104.64 91.9812C104.64 87.1209 108.538 83.1947 113.363 83.1947C118.187 83.1947 122.085 87.1209 122.085 91.9812C122.085 96.8415 118.187 100.768 113.363 100.768Z" fill="#C6B56F"/>
<path d="M88.8301 57.0252C88.8301 57.0252 61.2644 29.4783 33.6988 45.8323C33.6988 45.8323 61.2644 20.7077 88.8301 57.0252Z" fill="#C6B56F"/>
<path d="M137.424 58.6083C137.424 58.6083 164.989 31.0614 192.555 47.4154C192.555 47.4154 164.989 22.2908 137.424 58.6083Z" fill="#C6B56F"/>
</svg>
